<svg id="Layer_1" data-name="Layer 1" xmlns="http://www.w3.org/2000/svg" viewBox="0 0 64 64">
  <title>pdi</title>
  <path fill="white"
    d="M50,1H14A13,13,0,0,0,1,14V50A13,13,0,0,0,14,63H50A13,13,0,0,0,63,50V14A13,13,0,0,0,50,1ZM60.42,50A10.45,10.45,0,0,1,50,60.42H14A10.45,10.45,0,0,1,3.58,50V14A10.45,10.45,0,0,1,14,3.58H50A10.45,10.45,0,0,1,60.42,14Z" />
  <path fill="white"
    d="M33.33,46.32h.06c9.75,0,17.69-7.7,17.69-17.17S43.14,12,33.39,12H12.92V52H33.33Zm0-31.74h.06a14.86,14.86,0,0,1,15.1,14.58,14.86,14.86,0,0,1-15.1,14.58h-.06ZM30.75,49.43H15.51V14.57H30.75Z" />
</svg>