<svg id="Layer_1" data-name="Layer 1" xmlns="http://www.w3.org/2000/svg" width="63" height="64" viewBox="0 0 63 64">
  <defs>
    <style>
      .cls-1 {
        fill-rule: evenodd;
      }
    </style>
  </defs>
  <g id="Mobil">
    <g id="Mobil-2" data-name="Mobil">
      <g id="Sammanst채llning_-Mobil-L책ng" data-name="Sammanst채llning,-Mobil-L책ng">
        <g id="Group">
          <g id="igen">
            <path id="Fill-1" class="cls-1" d="M31.50007,1A30.38982,30.38982,0,0,0,1.00024,31.20821a2.37233,2.37233,0,0,0,.69307,1.70787,2.42352,2.42352,0,0,0,3.42993,0,2.37076,2.37076,0,0,0,.69288-1.70787A25.68509,25.68509,0,1,1,31.5,56.6467a26.33378,26.33378,0,0,1-14.97363-5.192l5.518-.39747a2.38659,2.38659,0,1,0-.17565-4.76972c-.05951.00621-.116.01552-.17556.02484l-11.23672.795a2.41967,2.41967,0,0,0-1.7557.9471,2.37192,2.37192,0,0,0-.42639,1.9346l2.40789,11.12934a2.41216,2.41216,0,0,0,4.71539-1.01849l-.928-4.24808a30.49292,30.49292,0,0,0,17.03088,5.56468A30.38958,30.38958,0,0,0,62,31.20825,30.38961,30.38961,0,0,0,31.50046,1Z"/>
          </g>
        </g>
      </g>
    </g>
  </g>
</svg>
