<svg id="Layer_1" data-name="Layer 1" xmlns="http://www.w3.org/2000/svg" width="92" height="64" viewBox="0 0 92 64">
  <defs>
    <style>
      .cls-1 {
        fill-rule: evenodd;
      }
    </style>
  </defs>
  <path fill="white" id="Fill-1" class="cls-1"
    d="M89.697,28.78327,64.02218,2.442C62.2591.93254,58.94332.31275,56.99993,2.05217a4.72148,4.72148,0,0,0-.10172,6.68623q.05009.05152.10172.10151L75.03139,27.33375H5.66035a4.64846,4.64846,0,1,0-.00444,9.2969h69.4456L57.07005,55.13449a4.93083,4.93083,0,0,0,0,6.77774c1.95341,1.7794,5.34933,1.17961,7.01223-.38987L89.697,35.18113a4.38381,4.38381,0,0,0,1.30227-3.19893A5.1226,5.1226,0,0,0,89.697,28.78327Z" />
</svg>